<?xml version="1.0" encoding="UTF-8"?>
<svg width="9px" height="11px" viewBox="0 0 9 11" version="1.1" xmlns="http://www.w3.org/2000/svg" xmlns:xlink="http://www.w3.org/1999/xlink">
    <!-- Generator: Sketch 48.1 (47250) - http://www.bohemiancoding.com/sketch -->
    <title>green</title>
    <desc>Created with Sketch.</desc>
    <defs></defs>
    <g id="01-Dashboard_1.1-Copy-2" stroke="none" stroke-width="1" fill="none" fill-rule="evenodd" transform="translate(-1024.000000, -601.000000)">
        <path d="M1028.03104,601.000001 C1027.84127,600.999922 1027.68142,601.064927 1027.55154,601.194807 L1024.19481,604.551543 C1024.06495,604.681396 1024.00008,604.841114 1024,605.031039 C1024.00003,605.220754 1024.06501,605.380577 1024.19488,605.510457 C1024.32476,605.640336 1024.48461,605.705342 1024.6743,605.705342 L1026.832,605.705499 L1026.83202,610.680571 C1026.83215,610.780481 1026.86454,610.862885 1026.92946,610.927812 C1026.99439,610.992739 1027.0769,611.025228 1027.17671,611.025254 L1028.88516,611.025149 C1028.98502,611.025176 1029.06727,610.992791 1029.13227,610.927786 C1029.19728,610.862781 1029.22966,610.780533 1029.22964,610.680676 L1029.22982,605.705394 L1031.38738,605.705525 C1031.57728,605.70542 1031.73729,605.64052 1031.86717,605.51064 C1031.99705,605.380761 1032.06181,605.220885 1032.06187,605.031039 C1032.06187,604.841351 1031.99686,604.681501 1031.86698,604.551622 L1028.51027,601.194912 C1028.38037,601.064848 1028.22104,600.999791 1028.03104,601.000001 Z" id="Path-Copy-2" fill="#43CE75"></path>
    </g>
</svg>