<?xml version="1.0" encoding="UTF-8"?>
<svg width="9px" height="10px" viewBox="0 0 9 10" version="1.1" xmlns="http://www.w3.org/2000/svg" xmlns:xlink="http://www.w3.org/1999/xlink">
    <!-- Generator: Sketch 48.1 (47250) - http://www.bohemiancoding.com/sketch -->
    <title>red</title>
    <desc>Created with Sketch.</desc>
    <defs></defs>
    <g id="01-Dashboard_1.1-Copy-2" stroke="none" stroke-width="1" fill="none" fill-rule="evenodd" transform="translate(-949.000000, -603.000000)">
        <path d="M953.031039,603.000001 C952.841271,602.999922 952.681422,603.064927 952.551542,603.194807 L949.194806,606.551543 C949.064953,606.681396 949.000079,606.841114 949,607.031039 C949.000026,607.220754 949.065005,607.380577 949.194885,607.510457 C949.324764,607.640336 949.484614,607.705342 949.674302,607.705342 L951.831996,607.705499 L951.832022,612.680571 C951.832154,612.780481 951.864538,612.862885 951.929465,612.927812 C951.994391,612.992739 952.076901,613.025228 952.176706,613.025254 L953.885162,613.025149 C953.985019,613.025176 954.067266,612.992791 954.132271,612.927786 C954.197277,612.862781 954.229661,612.780533 954.229635,612.680676 L954.229819,607.705394 L956.387381,607.705525 C956.57728,607.70542 956.737287,607.64052 956.867166,607.51064 C956.997046,607.380761 957.061815,607.220885 957.061867,607.031039 C957.061867,606.841351 956.996862,606.681501 956.866983,606.551622 L953.510273,603.194912 C953.380367,603.064848 953.221042,602.999791 953.031039,603.000001 Z" id="Path-Copy-4" fill="#F44343" transform="translate(953.030934, 608.012627) scale(1, -1) translate(-953.030934, -608.012627) "></path>
    </g>
</svg>