<?xml version="1.0" encoding="UTF-8"?>
<svg width="22px" height="24px" viewBox="0 0 22 24" version="1.1" xmlns="http://www.w3.org/2000/svg" xmlns:xlink="http://www.w3.org/1999/xlink">
    <!-- Generator: Sketch 49 (51002) - http://www.bohemiancoding.com/sketch -->
    <title>Shape</title>
    <desc>Created with Sketch.</desc>
    <defs></defs>
    <g id="02-AIWB-Retail-2nd-Level" stroke="none" stroke-width="1" fill="none" fill-rule="evenodd">
        <g id="01-Dashboard_1.1-Copy" transform="translate(-40.000000, -22.000000)" fill="#FFFFFF" fill-rule="nonzero">
            <path d="M61.4006475,33.6842492 C61.1622374,34.2206718 60.577893,34.5768792 59.9522516,34.5965162 L59.9522516,43.8922873 C59.9522516,44.7721608 59.2125035,45.4882501 58.3227784,45.4882501 L51.8007874,45.4882501 L51.8007874,40.1056126 C51.8007874,39.9176653 51.6746051,39.7914829 51.4866577,39.7914829 L50.0792211,39.7914829 C49.8912738,39.7914829 49.7650915,39.9176653 49.7650915,40.1056126 L49.7650915,45.4882501 L43.2766109,45.4882501 C42.3675519,45.4882501 41.6471377,44.7854922 41.6471377,43.8922873 L41.6471377,34.563087 C41.0199563,34.5452096 40.4817709,34.218463 40.201123,33.6560364 C39.9058504,33.0064368 40.0469609,32.2479211 40.5542608,31.7976333 L49.3374261,23.4167729 C50.1737283,22.6296649 51.4266353,22.6305789 52.2664012,23.420987 L61.0380606,31.8243707 C61.552728,32.2900518 61.6862077,32.9994494 61.4006475,33.6842492 Z M43.3172861,32.3772474 L43.9342827,32.3772474 L43.9342827,43.3016363 L47.5784776,43.3016363 L47.5784776,40.139123 C47.5784776,38.7520818 48.7256903,37.6048691 50.1127315,37.6048691 L51.5201681,37.6048691 C52.9072094,37.6048691 54.054422,38.7520818 54.054422,40.139123 L54.054422,43.2681259 L57.7321274,43.2681259 L57.7321274,32.343737 L58.4146957,32.343737 L50.8835432,25.1286576 L43.3172861,32.3772474 Z" id="Shape"></path>
        </g>
    </g>
</svg>