<?xml version="1.0" encoding="UTF-8"?>
<svg width="21px" height="24px" viewBox="0 0 21 24" version="1.1" xmlns="http://www.w3.org/2000/svg" xmlns:xlink="http://www.w3.org/1999/xlink">
    <!-- Generator: Sketch 49.1 (51147) - http://www.bohemiancoding.com/sketch -->
    <title>notes-icon</title>
    <desc>Created with Sketch.</desc>
    <defs></defs>
    <g id="03-AIWB-Retail-3rd-Level" stroke="none" stroke-width="1" fill="none" fill-rule="evenodd">
        <g id="03-C-AIWB-Retail-3rd-Level" transform="translate(-1325.000000, -24.000000)" fill="#FFFFFF" fill-rule="nonzero">
            <g id="Group-21" transform="translate(0.000000, 1.000000)">
                <path d="M1336.20714,38.7761905 L1334.70238,38.7761905 L1334.70238,35.1571429 L1331.08333,35.1571429 L1331.08333,33.652381 L1334.70238,33.652381 L1334.70238,30.0333333 L1336.20714,30.0333333 L1336.20714,33.652381 L1339.82619,33.652381 L1339.82619,35.1571429 L1336.20714,35.1571429 L1336.20714,38.7761905 Z M1344.27619,23.7 C1344.79856,23.7 1345.23678,24.1382152 1345.3,24.7238095 L1345.3,40.4099784 L1338.74569,46.9642857 L1326.67857,46.9642857 C1326.14104,46.9642857 1325.7,46.5031977 1325.7,45.9404762 L1325.7,24.7238095 C1325.7,24.161088 1326.14104,23.7 1326.67857,23.7 L1344.27619,23.7 Z M1342.91859,40.5857143 L1338.92143,40.5857143 L1338.92143,44.5828788 L1342.91859,40.5857143 Z M1343.75,25.2047619 L1327.15952,25.2047619 L1327.15952,45.4142857 L1337.41667,45.4142857 L1337.41667,39.0809524 L1343.75,39.0809524 L1343.75,25.2047619 Z" id="notes-icon"></path>
            </g>
        </g>
    </g>
</svg>